<?xml version="1.0" encoding="UTF-8"?>
<svg width="447px" height="384px" viewBox="0 0 447 384" version="1.1" xmlns="http://www.w3.org/2000/svg" xmlns:xlink="http://www.w3.org/1999/xlink">
    <title>001-cat</title>
    <g id="Page-1" stroke="none" stroke-width="1" fill="none" fill-rule="evenodd">
        <g id="001-cat" fill="#FFFFFF" fill-rule="nonzero">
            <path d="M129.854,322.878 L158.92,288 L133.082,288 C123.436002,300.758231 110.664574,310.815016 96,317.2 L96,325.7 L132.434,384 L161.566,384 L129.216,332.24 C127.383958,329.309168 127.641283,325.53319 129.854,322.878 L129.854,322.878 Z" id="Path"></path>
            <path d="M45.833,152.331 C49.4601591,147.750988 53.6928857,143.685121 58.415,140.245 C29.1263166,129.744181 11.6333461,99.700445 16.959025,69.0454077 C22.284704,38.3903704 48.8857891,16.0070648 80,16 L144,16 C148.418278,16 152,12.418278 152,8 C152,3.581722 148.418278,-1.42108547e-14 144,-1.42108547e-14 L80,-1.42108547e-14 C42.5678533,0.00576719262 10.1440513,25.9667696 1.9517681,62.4914481 C-6.24051509,99.0161266 11.9891916,136.338431 45.833,152.331 Z" id="Path"></path>
            <path d="M347.2,231.6 L387.2,201.6 C389.020778,200.234244 391.337106,199.708715 393.569,200.155 L429.369,207.316 L446.846,189.839 L440.41,170.53 C440.138709,169.714069 440.000278,168.85985 440,168 L440,147.313 L426.343,133.657 C424.842727,132.156649 423.999923,130.121762 424,128 L424,126.627 C424.026274,117.019406 421.062636,107.641659 415.52,99.794 L411.926,103.388 C408.380517,106.930983 405.430533,111.023342 403.19,115.507 L399.155,123.577 C398.051306,125.785382 395.989811,127.360474 393.569,127.845 L313.569,143.845 C313.052355,143.948035 312.52682,143.999952 312,144 L96,144 C69.5026685,144.029759 48.0297593,165.502669 48,192 L48,272.333 L47.979,272.333 C47.8778144,274.885679 46.5616298,277.235929 44.438,278.656 L0,308.281 L0,384 L24,384 L24,328 C23.9998008,324.428852 26.3665403,321.290066 29.8,320.308 L80.262,305.89 C113.188263,296.370251 135.890495,266.274662 136,232 L152,232 C151.993516,245.850716 148.868216,259.522194 142.856,272 L278.456,272 L264.51,234.809 L279.49,229.191 L303.167,292.329 L364.281,384 L394.606,384 L344.956,291.793 C344.328381,290.627252 343.999896,289.323962 344,288 L344,238 C344,235.481942 345.185553,233.110835 347.2,231.6 Z M408,152 L424,152 L424,168 L408,168 L408,152 Z" id="Shape"></path>
            <path d="M245.416,288 L232,321.541 L232,384 L256,384 L256,328 C255.999904,326.124736 256.658583,324.309031 257.861,322.87 L285.244,290.1 L284.456,288 L245.416,288 Z" id="Path"></path>
        </g>
    </g>
</svg>