<?xml version="1.0" encoding="UTF-8"?>
<svg width="214px" height="214px" viewBox="0 0 214 214" version="1.1" xmlns="http://www.w3.org/2000/svg" xmlns:xlink="http://www.w3.org/1999/xlink">
    <title>square</title>
    <g id="Page-1" stroke="none" stroke-width="1" fill="none" fill-rule="evenodd">
        <g id="square" fill="#FFFFFF" fill-rule="nonzero">
            <path d="M203,21.6666667 L11,21.6666667 C5.112,21.6666667 0.333333333,16.888 0.333333333,11 C0.333333333,5.112 5.112,0.333333333 11,0.333333333 L203,0.333333333 C208.888,0.333333333 213.666667,5.112 213.666667,11 C213.666667,16.888 208.888,21.6666667 203,21.6666667 Z" id="Path"></path>
            <path d="M203,117.666667 L11,117.666667 C5.112,117.666667 0.333333333,112.888 0.333333333,107 C0.333333333,101.112 5.112,96.3333333 11,96.3333333 L203,96.3333333 C208.888,96.3333333 213.666667,101.112 213.666667,107 C213.666667,112.888 208.888,117.666667 203,117.666667 Z" id="Path"></path>
            <path d="M203,213.666667 L11,213.666667 C5.112,213.666667 0.333333333,208.888 0.333333333,203 C0.333333333,197.112 5.112,192.333333 11,192.333333 L203,192.333333 C208.888,192.333333 213.666667,197.112 213.666667,203 C213.666667,208.888 208.888,213.666667 203,213.666667 Z" id="Path"></path>
        </g>
    </g>
</svg>