<?xml version="1.0" encoding="UTF-8"?>
<svg width="293px" height="322px" viewBox="0 0 293 322" version="1.1" xmlns="http://www.w3.org/2000/svg" xmlns:xlink="http://www.w3.org/1999/xlink">
    <title>Shape</title>
    <g id="Page-1" stroke="none" stroke-width="1" fill="none" fill-rule="evenodd">
        <g id="shopping-bag" fill="#FFFFFF" fill-rule="nonzero">
            <path d="M292.4,313.2 L268.4,89.6 C268,86 264.8,83.2 261.2,83.2 L216.8,83.2 L216.8,69.6 C216.8,31.2 185.6,0 147.2,0 C108.8,0 77.6,31.2 77.6,69.6 L77.6,83.2 L32,83.2 C28.4,83.2 25.2,86 24.8,89.6 L0.8,313.2 C0.4,315.2 1.2,317.2 2.4,318.8 C3.6,320.4 5.6,321.2 7.6,321.2 L285.6,321.2 C287.6,321.2 289.6,320.4 290.8,318.8 C292,317.2 292.8,315.2 292.4,313.2 Z M209.6,123.6 C213.2,123.6 216,126.4 216,130 C216,133.6 213.2,136.4 209.6,136.4 C206,136.4 203.2,133.6 203.2,130 C203.2,126.4 206,123.6 209.6,123.6 Z M92,69.6 C92,39.2 116.8,14.4 147.2,14.4 C177.6,14.4 202.4,39.2 202.4,69.6 L202.4,83.2 L92,83.2 L92,69.6 Z M84.8,123.6 C88.4,123.6 91.2,126.4 91.2,130 C91.2,133.6 88.4,136.4 84.8,136.4 C81.2,136.4 78.4,133.6 78.4,130 C78.4,126.4 81.2,123.6 84.8,123.6 Z M16,306.4 L38.4,97.2 L77.6,97.2 L77.6,110.4 C69.6,113.2 64,120.8 64,129.6 C64,140.8 73.2,150 84.4,150 C95.6,150 104.8,140.8 104.8,129.6 C104.8,120.8 99.2,113.2 91.2,110.4 L91.2,97.2 L201.6,97.2 L201.6,110.4 C193.6,113.2 188,120.8 188,129.6 C188,140.8 197.2,150 208.4,150 C219.6,150 228.8,140.8 228.8,129.6 C228.8,120.8 223.2,113.2 215.2,110.4 L215.2,97.2 L256,97.2 L278.4,306.4 L16,306.4 Z" id="Shape"></path>
        </g>
    </g>
</svg>