<?xml version="1.0" encoding="UTF-8"?>
<svg width="512px" height="512px" viewBox="0 0 512 512" version="1.1" xmlns="http://www.w3.org/2000/svg" xmlns:xlink="http://www.w3.org/1999/xlink">
    <title>present-box</title>
    <g id="Page-1" stroke="none" stroke-width="1" fill="none" fill-rule="evenodd">
        <g id="present-box" fill="#FFCE76" fill-rule="nonzero">
            <path d="M480,256 L32,256 C14.3573333,256 0,241.642667 0,224 L0,138.666667 C0,121.024 14.3573333,106.666667 32,106.666667 L480,106.666667 C497.642667,106.666667 512,121.024 512,138.666667 L512,224 C512,241.642667 497.642667,256 480,256 Z M32,128 C26.1333333,128 21.3333333,132.778667 21.3333333,138.666667 L21.3333333,224 C21.3333333,229.888 26.1333333,234.666667 32,234.666667 L480,234.666667 C485.866667,234.666667 490.666667,229.888 490.666667,224 L490.666667,138.666667 C490.666667,132.778667 485.866667,128 480,128 L32,128 Z" id="Shape"></path>
            <path d="M416,512 L96,512 C66.5813333,512 42.6666667,488.064 42.6666667,458.666667 L42.6666667,245.333333 C42.6666667,239.445333 47.4453333,234.666667 53.3333333,234.666667 C59.2213333,234.666667 64,239.445333 64,245.333333 L64,458.666667 C64,476.309333 78.3573333,490.666667 96,490.666667 L416,490.666667 C433.642667,490.666667 448,476.309333 448,458.666667 L448,245.333333 C448,239.445333 452.778667,234.666667 458.666667,234.666667 C464.554667,234.666667 469.333333,239.445333 469.333333,245.333333 L469.333333,458.666667 C469.333333,488.064 445.418667,512 416,512 Z" id="Path"></path>
            <path d="M256,512 C250.112,512 245.333333,507.221333 245.333333,501.333333 L245.333333,245.333333 C245.333333,239.445333 250.112,234.666667 256,234.666667 C261.888,234.666667 266.666667,239.445333 266.666667,245.333333 L266.666667,501.333333 C266.666667,507.221333 261.888,512 256,512 Z" id="Path"></path>
            <path d="M256,128 C255.232,128 254.464,127.914667 253.696,127.744 C240.256,124.757333 172.266667,108.992 154.304,91.0293333 C144.213333,80.9813333 138.666667,67.584 138.666667,53.3333333 C138.666667,39.0826667 144.213333,25.6853333 154.282667,15.616 C175.082667,-5.184 208.917333,-5.184 229.696,15.616 C247.658667,33.5573333 263.424,101.568 266.410667,115.029333 C267.2,118.592 266.112,122.304 263.530667,124.864 C261.525333,126.890667 258.794667,128 256,128 Z M192,21.3546667 C183.808,21.3546667 175.594667,24.4693333 169.365333,30.6986667 C163.328,36.7573333 160,44.7786667 160,53.3333333 C160,61.888 163.328,69.9093333 169.365333,75.968 C177.664,84.2666667 212.352,95.4666667 241.578667,102.933333 C234.090667,73.7066667 222.912,39.0186667 214.613333,30.72 C208.405333,24.4693333 200.192,21.3546667 192,21.3546667 Z" id="Shape"></path>
            <path d="M256,128 C253.205333,128 250.474667,126.890667 248.448,124.885333 C245.866667,122.304 244.778667,118.592 245.568,115.050667 C248.554667,101.589333 264.32,33.6 282.282667,15.6373333 C303.082667,-5.184 336.917333,-5.14133333 357.696,15.6373333 C367.786667,25.6853333 373.333333,39.0826667 373.333333,53.3333333 C373.333333,67.584 367.786667,80.9813333 357.717333,91.0506667 C339.754667,109.013333 271.765333,124.778667 258.325333,127.765333 C257.536,127.914667 256.768,128 256,128 L256,128 Z M320,21.3546667 C311.808,21.3546667 303.594667,24.4693333 297.365333,30.6986667 C289.066667,38.9973333 277.888,73.6853333 270.4,102.912 C299.626667,95.4453333 334.314667,84.2453333 342.613333,75.9466667 C348.672,69.9093333 352,61.888 352,53.3333333 C352,44.7786667 348.672,36.7573333 342.634667,30.6986667 C336.405333,24.4693333 328.192,21.3546667 320,21.3546667 L320,21.3546667 Z" id="Shape"></path>
        </g>
    </g>
</svg>