<?xml version="1.0" encoding="UTF-8"?>
<svg width="512px" height="209px" viewBox="0 0 512 209" version="1.1" xmlns="http://www.w3.org/2000/svg" xmlns:xlink="http://www.w3.org/1999/xlink">
    <title>Shape</title>
    <g id="Page-1" stroke="none" stroke-width="1" fill="none" fill-rule="evenodd">
        <g id="nike" fill="#FFFFFF" fill-rule="nonzero">
            <path d="M511.089,14.272 C508.369,6.4 499.857,1.92 491.889,4.064 L281.393,59.36 L155.153,94.624 C133.681,100.704 115.153,105.984 100.465,100.704 C92.657,97.088 87.729,91.744 85.393,84.352 C80.881,69.952 86.065,48.32 99.665,25.056 C103.633,18.304 102.065,9.632 96.017,4.608 C89.969,-0.352 81.201,-0.224 75.281,4.96 C41.937,34.304 -13.487,111.072 2.993,163.872 C8.465,181.408 24.177,203.392 67.537,208.448 C70.097,208.832 72.881,208.992 75.825,208.992 C93.137,208.992 116.625,202.976 140.657,192.192 L502.385,34.208 C510.033,30.848 513.809,22.176 511.089,14.272 Z M127.665,162.912 C102.257,174.336 81.297,178.176 71.569,176.704 C39.345,172.96 34.961,158.976 33.521,154.368 C28.113,137.056 37.649,109.888 52.657,84.192 C53.169,87.552 53.905,90.848 54.897,93.984 C59.953,110.016 71.057,122.4 88.305,130.272 C113.905,139.648 139.313,132.416 163.889,125.408 L260.241,98.528 L299.889,87.584 L127.665,162.912 Z" id="Shape"></path>
        </g>
    </g>
</svg>